<svg xmlns="http://www.w3.org/2000/svg" viewBox="0 0 1200 800" role="img" aria-labelledby="title desc">
  <title>RAE life sciences placeholder</title>
  <desc>Temporary institutional fallback for life sciences research imagery.</desc>
  <defs>
    <linearGradient id="bg" x1="0" y1="0" x2="1" y2="1">
      <stop offset="0%" stop-color="#081826"/>
      <stop offset="100%" stop-color="#15415d"/>
    </linearGradient>
    <linearGradient id="accent" x1="0" y1="0" x2="1" y2="0">
      <stop offset="0%" stop-color="#00b4a6"/>
      <stop offset="100%" stop-color="#7dd3fc"/>
    </linearGradient>
  </defs>
  <rect width="1200" height="800" fill="url(#bg)"/>
  <circle cx="930" cy="180" r="170" fill="#00b4a6" opacity="0.08"/>
  <path d="M620 170c-120 0-218 98-218 218 0 180 218 340 218 340s218-160 218-340c0-120-98-218-218-218Zm0 300a82 82 0 1 1 0-164 82 82 0 0 1 0 164Z" fill="url(#accent)" opacity="0.92"/>
  <text x="90" y="120" fill="#00b4a6" font-family="Arial, Helvetica, sans-serif" font-size="22" font-weight="700">RESEARCH</text>
  <text x="90" y="185" fill="#ffffff" font-family="Arial, Helvetica, sans-serif" font-size="46" font-weight="700">Life Sciences</text>
  <text x="90" y="230" fill="#d7e3ef" font-family="Arial, Helvetica, sans-serif" font-size="28" font-weight="600">Temporary placeholder image</text>
  <text x="90" y="280" fill="#9fb3c8" font-family="Arial, Helvetica, sans-serif" font-size="20">Replace with approved life sciences photography.</text>
  <rect x="90" y="690" width="180" height="6" rx="3" fill="url(#accent)"/>
</svg>